<?xml version="1.0" encoding="UTF-8"?><!DOCTYPE svg PUBLIC "-//W3C//DTD SVG 1.1//EN" "http://www.w3.org/Graphics/SVG/1.1/DTD/svg11.dtd"><svg xmlns="http://www.w3.org/2000/svg"><symbol id="icon-3rdparties" viewBox="0 0 25 25">
    <style>
        .st0,.st1{fill:none;stroke:#002651;stroke-linejoin:round;stroke-miterlimit:10}.st1{stroke-linecap:round}
    </style>
    <g>
        <path class="st0" d="M4.5 7v1.4l-2.9.7c-.6.2-1 .8-1.1 1.3v1.1H6"/>
        <path class="st0" d="M7.5 7v1.9l2.9.7c.6.2 1.1.8 1.1 1.3v.6H5"/>
        <ellipse class="st0" cx="5.8" cy="4" rx="3.1" ry="3.4"/>
        <path class="st0" d="M8.9 3.4c-.5.5-2 .5-2.6-.6-1 1-2.7 1-3.6.4"/>
        <path class="st0" d="M17.5 7v1.4l-2.3.8c-.6.2-1 .8-1.7 1.3v1H20"/>
        <path class="st0" d="M20.5 7v1.4l3 .8c.6.2 1 .8 1 1.3v1H19"/>
        <ellipse class="st0" cx="19.3" cy="4" rx="3.1" ry="3.4"/>
        <path class="st0" d="M22.4 3.4c-.5.5-2 .5-2.6-.5-1 1-2.7 1-3.6.4"/>
        <path class="st0" d="M11.5 21v1l-3.1.8c-.6.2-1 .8-.9 1.3v.4H13"/>
        <path class="st0" d="M13.5 21v1l3.2.8c.6.2 1 .8.8 1.3v.4H12"/>
        <ellipse class="st0" cx="12.5" cy="17.5" rx="3.1" ry="3.4"/>
        <path class="st0" d="M15.6 16.9c-.5.5-2 .5-2.6-.5-1 1-2.7 1-3.6.4"/>
        <path class="st1" d="M4.2 13.1l2.6 2.6"/>
        <path class="st1" d="M20.9 13.1l-2.6 2.6"/>
    </g>
</symbol><symbol id="icon-IDdata" viewBox="0 0 24 24">
    <g stroke-linecap="round" stroke-linejoin="round" fill-rule="evenodd">
        <path d="M.5 3.5v17h4V19c0-.962.787-1.75 1.75-1.75.962 0 1.75.788 1.75 1.75v1.5h8V19c0-.962.787-1.75 1.75-1.75.962 0 1.75.788 1.75 1.75v1.5h4v-17H.5zm12.5 10h8m-8-2h8m-8-2h8m-8-2h4"/>
        <path d="M7 14.5H2.5v-2S4 11 6 11v-1s-1-.5-1-2c0-1 0-2 2-2s2 1 2 2c0 1.5-1 2-1 2v1c2 0 3.5 1.5 3.5 1.5v2H7z"/>
    </g>
</symbol><symbol id="icon-Linkedin" viewBox="0 0 18 18">
    <title>
        Linkedin
    </title>
    <path d="M.227 17.152h3.845V5.579H.227v11.573zM2.15 3.999c1.341 0 2.175-.888 2.175-1.999-.023-1.135-.834-2-2.15-2C.859 0 0 .865 0 2c0 1.111.834 1.999 2.124 1.999h.026zm4.052 13.153s.051-10.487 0-11.572h3.847v1.677h-.026c.506-.789 1.417-1.949 3.492-1.949 2.53 0 4.429 1.653 4.429 5.209v6.635h-3.847v-6.191c0-1.556-.557-2.617-1.949-2.617-1.062 0-1.695.715-1.972 1.407-.104.247-.127.593-.127.939v6.462H6.202z" fill-rule="evenodd"/>
</symbol><symbol id="icon-Medium" viewBox="0 0 22 18">
    <title>
        medium
    </title>
    <g fill-rule="nonzero">
        <path d="M9.87 7.34L14.308.41a.783.783 0 0 1 .965-.271l6.644 3.194c.043.021.059.071.034.107l-7.286 11.39-7.333-3.523v-.002l7.333 3.524L9.87 7.341z"/>
        <g>
            <path d="M21.96 3.38c.023.027.038.06.038.097v13.791c0 .6-.546.829-1.219.5l-6.114-2.939 7.286-11.39a.067.067 0 0 0 .008-.059z"/>
            <path d="M1.002.334l.013.006 6.291 3.023a.11.11 0 0 1 .043.038l7.316 11.428-7.333-3.524V3.418a.065.065 0 0 0-.039-.06L1.002.334z"/>
        </g>
        <g>
            <path d="M21.96 3.38c.023.027.038.06.038.097v13.791c0 .6-.546.829-1.219.5l-6.114-2.939 7.286-11.39a.067.067 0 0 0 .008-.059z"/>
            <path d="M1.002.334l.013.006 6.291 3.023a.11.11 0 0 1 .043.038l7.316 11.428-7.333-3.524V3.418a.065.065 0 0 0-.039-.06L1.002.334z"/>
        </g>
        <path d="M6.318 17.865l-5.71-2.743c-.334-.16-.608-.586-.608-.947V.725C0 .245.365.028.812.243l6.481 3.115c.024.011.04.035.04.06V17.26c0 .603-.457.874-1.015.605z"/>
    </g>
</symbol><symbol id="icon-Slack" viewBox="0 0 23 23">
    <title>
        slack
    </title>
    <g fill-rule="nonzero">
        <path d="M14.91 1.423a2.048 2.048 0 1 0-3.895 1.266l5.296 16.294a2.048 2.048 0 0 0 2.492 1.27c1.087-.313 1.75-1.467 1.402-2.535L14.912 1.423"/>
        <path d="M6.705 4.09a2.048 2.048 0 0 0-3.896 1.265L8.105 21.65a2.048 2.048 0 0 0 2.491 1.27c1.087-.313 1.75-1.468 1.403-2.536L6.705 4.09"/>
        <path d="M21.577 14.918a2.048 2.048 0 1 0-1.266-3.896L4.017 16.318a2.048 2.048 0 0 0-1.27 2.492c.313 1.087 1.467 1.75 2.535 1.403l16.295-5.295"/>
        <path d="M7.413 19.52l3.894-1.265-1.265-3.895-3.895 1.266 1.266 3.894"/>
        <path d="M15.62 16.854l3.894-1.265-1.266-3.896-3.895 1.266 1.266 3.895"/>
        <path d="M18.91 6.712a2.048 2.048 0 0 0-1.265-3.896L1.35 8.112a2.048 2.048 0 0 0-1.27 2.492c.313 1.087 1.468 1.75 2.536 1.402L18.91 6.712"/>
        <path d="M4.746 11.314L8.64 10.05 7.375 6.154 3.48 7.42l1.266 3.894"/>
        <path d="M12.952 8.648l3.895-1.266-1.266-3.895-3.895 1.266 1.266 3.895"/>
    </g>
</symbol><symbol id="icon-Twitter" viewBox="0 0 20 16">
    <title>
        Twitter
    </title>
    <path d="M17.323 3.906c.007.17.011.341.011.513 0 5.232-3.982 11.264-11.264 11.264-2.236 0-4.317-.655-6.07-1.778.31.036.625.055.945.055a7.943 7.943 0 0 0 4.917-1.695 3.962 3.962 0 0 1-3.698-2.75 3.983 3.983 0 0 0 1.787-.067A3.961 3.961 0 0 1 .776 5.566v-.05a3.955 3.955 0 0 0 1.793.495A3.958 3.958 0 0 1 1.344.725a11.242 11.242 0 0 0 8.16 4.137 3.959 3.959 0 0 1 6.747-3.611A7.93 7.93 0 0 0 18.765.29a3.967 3.967 0 0 1-1.741 2.19 7.888 7.888 0 0 0 2.274-.623 8.05 8.05 0 0 1-1.975 2.049" fill-rule="evenodd"/>
</symbol><symbol id="icon-access" viewBox="0 0 24 24">
    <g fill-rule="evenodd" stroke-linecap="round" stroke-linejoin="round">
        <path d="M7 18.5a1.5 1.5 0 1 1-3 0 1.5 1.5 0 0 1 3 0z"/>
        <path d="M10.718 10.283A6.999 6.999 0 0 0 2.55 21.449a7 7 0 1 0 11.167-8.166L17 10h1.5V8.5L19 8h1.5V6.5L21 6h1.5V4.5l1-1v-3h-3l-9.782 9.783z"/>
    </g>
</symbol><symbol id="icon-angle_down" viewBox="0 0 13 8">
    <title>
        Rectangle-3
    </title>
    <path d="M12.657 1L7 6.657 1.343 1" fill-rule="evenodd"/>
</symbol><symbol id="icon-armour" viewBox="0 0 57 33">
    <title>
        Page 1
    </title>
    <g fill-rule="evenodd">
        <path d="M21.66 12.32l.013.05c.088.054.176.11.267.16.136.076.272.151.41.222 1.495.763 3.094 1.13 4.757 1.242 1.12.075 2.238.05 3.352-.106 1.19-.166 2.337-.473 3.424-.986.34-.16.666-.346 1.035-.54-.254-.142-.463-.267-.68-.379-1.553-.802-3.22-1.17-4.951-1.274a16.413 16.413 0 0 0-2.86.075c-1.173.134-2.313.4-3.399.867-.466.2-.912.445-1.368.67M18.535.054v.195c-.006 2.385-.01 4.769-.02 7.153-.004 1.263.46 2.346 1.238 3.316.062.077.12.054.186.04.595-.122 1.188-.264 1.787-.366a55.32 55.32 0 0 1 2.324-.34 33.748 33.748 0 0 1 4.373-.244c1.187.005 2.372.065 3.555.182 1.556.155 3.096.4 4.617.767.1.024.158.004.224-.08.592-.746 1.009-1.571 1.152-2.52.037-.241.044-.49.044-.735.002-2.398-.001-4.797-.003-7.195V.048c.196.026.38.044.564.076 3.25.555 6.325 1.645 9.281 3.086.415.202.805.455 1.21.68.089.05.105.114.097.208-.087 1.065-.428 2.046-.977 2.957-.738 1.227-1.736 2.212-2.868 3.07-1.15.872-2.403 1.568-3.715 2.162l-.148.07c.22.102.42.192.616.286 1.455.696 2.827 1.523 4.045 2.59 1.06.93 1.95 1.991 2.524 3.294.283.645.452 1.319.524 2.019.015.147-.02.24-.153.323-.849.528-1.75.951-2.665 1.344-1.718.736-3.47 1.377-5.282 1.845-.982.254-1.973.463-2.978.606-.018.002-.037 0-.073 0v-.17c.002-2.356-.01-4.712.014-7.068.013-1.296-.424-2.41-1.218-3.406-.056-.07-.105-.09-.192-.068a29.81 29.81 0 0 1-3.645.66c-.91.105-1.825.171-2.74.236a28.832 28.832 0 0 1-3.559.022 57.639 57.639 0 0 1-2.713-.217 30.52 30.52 0 0 1-4.04-.702c-.086-.02-.128.009-.178.07-.598.741-1.016 1.567-1.165 2.514a5.03 5.03 0 0 0-.05.778c.001 2.389.006 4.778.01 7.167v.201c-.447-.077-.876-.143-1.3-.226-2.92-.575-5.695-1.58-8.373-2.861-.45-.216-.874-.487-1.316-.722-.145-.078-.177-.18-.162-.332.08-.807.298-1.574.657-2.3.58-1.178 1.415-2.152 2.396-3.01 1.342-1.173 2.866-2.058 4.483-2.79l.174-.08-.313-.146c-1.45-.663-2.82-1.457-4.051-2.476-1.1-.91-2.045-1.95-2.684-3.242a6.356 6.356 0 0 1-.668-2.412c-.007-.1.029-.152.11-.204.845-.543 1.752-.964 2.672-1.36 1.54-.663 3.107-1.248 4.722-1.7a28.46 28.46 0 0 1 3.468-.755c.054-.008.11-.007.182-.011"/>
        <path d="M37.19 30.622l-.001 2.057c0 .226-.047.274-.274.276-.184 0-.37.004-.553-.002-.178-.007-.223-.06-.223-.237v-2.995c0-.182.048-.238.234-.241.378-.005.757-.003 1.135-.001.21 0 .358.117.46.286.1.166.181.342.269.514.2.391.397.783.598 1.173.036.07.08.137.133.226.125-.224.244-.427.352-.636.175-.34.34-.684.513-1.025.051-.101.107-.2.17-.294a.524.524 0 0 1 .467-.246c.354.002.71 0 1.064.001.217.002.257.044.257.257v2.995c0 .17-.042.218-.216.223-.194.006-.388.005-.582 0-.195-.003-.248-.06-.248-.26v-2.056l-.026-.01-.074.125c-.375.688-.753 1.376-1.124 2.066-.053.099-.109.146-.227.14a7.744 7.744 0 0 0-.667 0c-.104.003-.16-.031-.21-.123-.376-.704-.757-1.404-1.138-2.106-.021-.04-.045-.078-.067-.118l-.023.01z"/>
        <path d="M9.567 32.955c-.366 0-.73-.022-1.092.006-.441.034-.742-.124-1.007-.484-.48-.65-1.009-1.264-1.517-1.892-.014-.018-.031-.034-.072-.078V32.711c0 .186-.047.238-.232.243a11.85 11.85 0 0 1-.596 0c-.177-.005-.222-.056-.222-.236v-2.98c0-.207.054-.265.257-.266.374-.002.748-.012 1.121.006a.599.599 0 0 1 .37.143c.258.261.496.543.726.829.381.474.75.959 1.154 1.427.002-.044.006-.088.006-.133v-2c0-.212.057-.27.269-.272.203-.002.407-.003.61 0 .177.004.24.056.24.226.004 1.06.003 2.119.003 3.178 0 .023-.01.045-.018.079"/>
        <path d="M44.546 32.056c.223 0 .445.002.667 0 .29-.003.458-.138.488-.425.026-.248.036-.5.027-.75-.012-.345-.189-.523-.52-.53-.43-.009-.86-.007-1.29 0-.292.004-.488.154-.503.417-.017.305-.007.614.024.919.026.248.188.364.44.368.223.003.445 0 .667.001zm-.013.904H43.27c-.603 0-.913-.235-1.015-.825a5.414 5.414 0 0 1-.012-1.794c.089-.546.456-.862 1.008-.869a101.9 101.9 0 0 1 2.597 0c.583.008.975.376 1.01.992.03.531 0 1.067-.024 1.6a1.21 1.21 0 0 1-.143.455c-.15.307-.424.434-.753.438-.469.007-.937.002-1.405.002z"/>
        <path d="M32.562 31.151c.032.006.05.012.068.012.539-.005 1.078-.004 1.616-.02.34-.01.412-.104.396-.439-.011-.22-.058-.287-.278-.291a50.932 50.932 0 0 0-1.66-.003c-.047.001-.133.066-.136.105-.013.21-.006.422-.006.636m2.764.434c.29.077.407.286.439.544.026.21.022.424.028.637.003.131-.054.196-.199.191-.255-.008-.51-.001-.766-.002-.159-.001-.211-.05-.22-.212-.005-.113.003-.227-.003-.34-.012-.219-.113-.316-.332-.318a68.542 68.542 0 0 0-1.207.002c-.087 0-.136-.024-.175-.104-.087-.177-.184-.35-.294-.556-.006.068-.012.106-.012.144v1.136c0 .2-.045.246-.239.247-.25.002-.501.002-.752 0-.156 0-.193-.037-.193-.191v-2.938c0-.24.104-.346.347-.346 1.022-.002 2.044-.002 3.066 0 .113 0 .228.006.339.027.326.058.508.272.585.582.078.316.078.637.025.957a.59.59 0 0 1-.267.417c-.055.036-.106.076-.17.123"/>
        <path d="M20.352 31.157c.042.003.065.007.088.007.52-.005 1.04 0 1.56-.019.39-.014.453-.102.43-.489-.008-.13-.063-.214-.199-.231-.051-.007-.103-.019-.154-.019-.51-.002-1.02-.002-1.531 0-.09 0-.192-.004-.194.128-.002.203 0 .406 0 .623m2.763.426c.315.091.422.326.447.61.017.192.015.387.017.58.002.124-.05.189-.19.184-.259-.008-.52 0-.78-.003-.153 0-.202-.048-.208-.203-.005-.108.003-.218-.003-.326-.015-.249-.115-.34-.371-.34-.378-.001-.757-.004-1.135.002-.111.002-.18-.025-.23-.133a3.097 3.097 0 0 0-.282-.49c-.003.047-.008.093-.008.14l-.001 1.12c-.001.18-.048.228-.226.23-.256.003-.51.002-.766 0-.16 0-.187-.03-.187-.194v-2.936c0-.242.099-.344.345-.345.473-.003.945-.002 1.418-.001.577 0 1.154-.007 1.73.006.537.012.772.199.856.714.044.27.024.554.008.83-.01.2-.127.352-.298.458-.044.027-.084.06-.136.097"/>
        <path d="M54.042 31.164c.184 0 .369.006.553-.002a2.84 2.84 0 0 0 .463-.045c.228-.048.27-.14.241-.459-.015-.171-.086-.245-.298-.248-.543-.008-1.086-.004-1.63-.004-.11 0-.16.056-.157.169.004.15.006.302-.002.453-.005.104.026.142.135.139.232-.008.463-.003.695-.003m1.935.42c.32.087.422.322.451.592.022.21.009.425.01.637.001.102-.054.143-.152.142h-.837c-.116 0-.173-.063-.178-.175-.006-.132.002-.266-.015-.396-.031-.233-.113-.298-.348-.299-.383-.002-.766-.004-1.15.002-.11.002-.18-.022-.23-.133-.078-.175-.177-.342-.283-.543-.006.064-.012.097-.012.13v1.205c-.001.156-.046.205-.202.208-.27.004-.54 0-.809.001-.11 0-.163-.046-.162-.163.002-1.002 0-2.004.003-3.007 0-.19.094-.286.281-.305.047-.004.095-.002.142-.002h2.823c.141 0 .283.007.424.02.3.026.515.178.617.465.137.385.134.782.037 1.172-.03.12-.148.221-.235.323-.041.049-.105.078-.175.127"/>
        <path d="M11.08 32.024c.64 0 1.263.004 1.887-.002a.389.389 0 0 0 .401-.35 3.02 3.02 0 0 0 .021-.69c-.05-.488-.159-.572-.653-.572H11.08v1.614zm-1.077-2.546h.165c.927 0 1.853-.005 2.78.003.22.002.446.022.659.074.526.13.84.479.87 1.018.027.489.032.985-.022 1.47-.064.57-.393.855-.967.882-.656.03-1.314.024-1.971.026-.044 0-.106-.053-.13-.097-.101-.185-.19-.376-.308-.56v.65h-1.076v-3.466z"/>
        <path d="M16.013 31.114c0 .286-.006.572.003.857.004.124.108.136.21.136l2.227-.001.142.002c.102.001.165.055.17.153.006.184.006.369-.002.553-.004.09-.064.144-.16.147l-.127.003c-.923 0-1.845-.01-2.768.004-.63.01-.791-.376-.797-.79-.01-.624-.004-1.248-.004-1.873 0-.516.275-.798.796-.803.51-.006 1.021-.002 1.532-.002h1.22c.212.001.26.045.269.256.006.133.006.265 0 .398-.01.18-.056.222-.236.223h-1.987c-.09 0-.18-.002-.27 0-.166.005-.203.057-.204.281 0 .156.022.18.196.181.605.002 1.211.004 1.816-.001.106-.001.163.032.206.127.077.172.165.34.249.509.054.109.007.163-.101.172-.099.009-.198.005-.298.005-.544 0-1.088-.003-1.632.002-.103.001-.164-.025-.207-.123-.063-.145-.143-.282-.216-.422l-.027.006"/>
        <path d="M51.616 30.77c0 .297.009.596-.001.893-.028.84-.407 1.25-1.243 1.282-.684.025-1.37.011-2.055-.019-.6-.026-1.026-.465-1.046-1.063-.024-.713-.018-1.427-.02-2.141 0-.192.063-.247.263-.25.198-.002.397-.002.596 0 .204.002.262.06.262.262v1.802c.001.334.15.487.483.49.383.004.766.004 1.149.001.339-.003.494-.157.496-.497.003-.596 0-1.191 0-1.787.001-.226.047-.27.278-.271.198-.001.397-.003.595 0 .193.005.245.058.246.248.003.35.001.7.001 1.05h-.004z"/>
        <path d="M4.41 30.775c0 .297.009.596-.002.893-.028.838-.41 1.248-1.247 1.277-.679.024-1.361.012-2.04-.018-.617-.028-1.038-.466-1.058-1.083-.022-.704-.017-1.408-.019-2.113 0-.2.059-.255.254-.258.208-.004.416-.004.624 0 .184.003.243.064.243.252l.001 1.816c0 .325.15.481.473.485.388.004.776.004 1.163 0 .336-.002.49-.159.491-.5.003-.587.001-1.173.001-1.76 0-.255.04-.294.296-.294.185 0 .37-.002.553 0 .22.003.27.052.27.267.002.345.001.69.001 1.036H4.41z"/>
        <path d="M27.946 31.526h1.18l-.574-1.102-.606 1.102m-.085.145l-.294.535c-.123.224-.244.448-.37.67-.021.035-.064.084-.097.084-.372.006-.745.004-1.143.004.028-.072.042-.126.068-.173.586-1.062 1.174-2.124 1.758-3.187.042-.077.088-.108.176-.106.284.006.568.007.852 0a.662.662 0 0 1 .61.32c.101.16.189.327.28.492.445.812.89 1.624 1.332 2.437.032.058.047.127.08.217-.256 0-.481.002-.706 0-.161-.001-.352.047-.473-.023-.12-.07-.182-.256-.247-.4-.064-.14-.148-.188-.304-.182-.369.013-.738.001-1.107.006-.084.001-.126-.027-.157-.104-.079-.191-.166-.38-.258-.59"/>
    </g>
</symbol><symbol id="icon-arrow-down" viewBox="0 0 451.847 451.847">
    <path d="M225.923 354.706c-8.098 0-16.195-3.092-22.369-9.263L9.27 151.157c-12.359-12.359-12.359-32.397 0-44.751 12.354-12.354 32.388-12.354 44.748 0l171.905 171.915 171.906-171.909c12.359-12.354 32.391-12.354 44.744 0 12.365 12.354 12.365 32.392 0 44.751L248.292 345.449c-6.177 6.172-14.274 9.257-22.369 9.257z"/>
</symbol><symbol id="icon-bell" viewBox="0 0 13 15">
    <title>
        bell
    </title>
    <path d="M6.401 12.588c-2.157 0-4.207-.284-5.166-.458C.314 11.964 0 11.44 0 11.05c0-.576.223-.789.563-1.136.34-.347.85-.41.94-2.713.282-5.493 2.772-5.875 3.35-6.12.577-.246.756-.462.856-.625C5.81.29 5.883 0 6.401 0s.59.291.692.455c.1.163.279.379.857.624.577.246 3.068.628 3.35 6.121.088 2.303.599 2.366.94 2.713.34.347.563.56.563 1.136 0 .39-.315.915-1.235 1.081-.96.174-3.01.458-5.167.458zm0 2.048c-1.059 0-1.634-.82-1.752-.99-.118-.17-.057-.411.187-.411.243 0 .892.042 1.565.042.674 0 1.322-.042 1.565-.042.244 0 .305.24.187.411-.118.17-.693.99-1.752.99z" fill-rule="evenodd"/>
</symbol><symbol id="icon-checkclipboard" viewBox="0 0 21 25">
    <title>
        checkclipboard copy 8
    </title>
    <path d="M14.435 4.824c-.795-.2-1.348-.85-1.348-1.657v-.674c0-1.377-1.132-2.493-2.53-2.493h-.051c-1.398 0-2.53 1.116-2.53 2.493v.68c0 .803-.549 1.45-1.338 1.654-1.027.262-1.784 1.238-1.784 2.332v.03c0 .407.335.737.749.737h9.877c.414 0 .749-.33.749-.737v-.03c0-1.098-.763-2.075-1.794-2.335zm-3.893-1.542a.76.76 0 0 1-.766-.754.76.76 0 0 1 .766-.756.76.76 0 0 1 .766.756.76.76 0 0 1-.766.754zm4.733 9.692l-5.096 5.019a.894.894 0 0 1-1.25 0l-2.555-2.517a1.183 1.183 0 0 1 0-1.693 1.227 1.227 0 0 1 1.719 0l1.462 1.44 4.001-3.94a1.23 1.23 0 0 1 1.719 0 1.184 1.184 0 0 1 0 1.691zm-.266-11.407h4.387c.886 0 1.604.683 1.604 1.525v20.16c0 .843-.718 1.525-1.604 1.525H1.605C.718 24.777 0 24.095 0 23.252V3.092c0-.842.718-1.525 1.605-1.525h4.388v1.135c0 .548-.468.993-1.044.993H2.944c-.386 0-.698.296-.698.664v17.629c0 .367.312.664.698.664h15.115c.385 0 .697-.297.697-.664V4.358c0-.367-.312-.663-.697-.663h-2.005c-.577 0-1.045-.445-1.045-.993V1.567z" fill-rule="evenodd"/>
</symbol><symbol id="icon-checked" viewBox="-415 292.8 10 9.5">
    <style>
        .st0{fill:none;stroke:#c9cadb;stroke-width:2;stroke-linecap:round;stroke-miterlimit:50}
    </style>
    <path class="st0" d="M-414 298.1l2.4 2.5 5.4-6.6"/>
</symbol><symbol id="icon-childrendata" viewBox="0 0 24 24">
    <g fill-rule="evenodd">
        <path d="M4.499 4.5a.5.5 0 1 0 0 1 .5.5 0 0 0 0-1"/>
        <path stroke-linecap="round" stroke-linejoin="round" d="M5.617 18.64C6.437 16.206 9.254 14 12 14c2.741 0 5.482 2.128 6.291 4.665"/>
        <path stroke-linecap="round" stroke-linejoin="round" d="M2.874 17.716c1.089-3 3.542-4.966 3.542-4.966L4.999 7.5l-1.796.602a2.26 2.26 0 0 1-1.216-4.34l3.194-1.441a2 2 0 0 1 2.643.996L9.499 7h5a4 4 0 0 1 4 4v2.625c.643.267 1.953 2.248 2.625 4.09m-3.643-9.38l5.435 3.082"/>
        <path stroke-linecap="round" stroke-linejoin="round" d="M14.999 7h-5.5l1 4h3.5z"/>
        <path stroke-linecap="round" stroke-linejoin="round" d="M11.999 23.5c-3.523 0-6.959-.646-10.211-1.921a2 2 0 0 1 1.459-3.725c5.568 2.182 11.924 2.185 17.492.005a1.998 1.998 0 0 1 2.591 1.134 1.999 1.999 0 0 1-1.134 2.591A27.843 27.843 0 0 1 11.999 23.5zM5.53 2.187l1.62-.645a2.499 2.499 0 0 1 3.236 1.363L12.083 7"/>
    </g>
</symbol><symbol id="icon-closeX" viewBox="0 0 24 24">
    <path d="M23.5.5l-23 23m23 0L.5.5" stroke-linecap="round" stroke-linejoin="round" fill-rule="evenodd"/>
</symbol><symbol id="icon-comment" viewBox="0 0 8 9">
    <title>
        Comment Icon
    </title>
    <path d="M6.09 6h.913A.998.998 0 0 0 8 5.01V.99C8 .452 7.554 0 7.003 0H.997A.998.998 0 0 0 0 .99v4.02c0 .539.446.99.997.99h.913L3.4 8.017c.339.458.869.448 1.2 0L6.09 6z" fill-rule="evenodd"/>
</symbol><symbol id="icon-complaint" viewBox="0 0 24 24">
    <g stroke-linecap="round" stroke-linejoin="round" fill-rule="evenodd">
        <path d="M17.01 4.822c-2.92 2.621-7.44 2.385-10.068.056M9.5 10a1.5 1.5 0 1 0-3.001.001A1.5 1.5 0 0 0 9.5 10zm8 0a1.5 1.5 0 1 0-3.001.001A1.5 1.5 0 0 0 17.5 10z"/>
        <path d="M.5 12C.5 5.649 5.648.5 12 .5S23.5 5.649 23.5 12c0 6.352-5.148 11.5-11.5 11.5S.5 18.352.5 12z"/>
        <path d="M15 17.5a3 3 0 1 1-6 0 3 3 0 0 1 6 0z"/>
    </g>
</symbol><symbol id="icon-contact" viewBox="0 0 24 24">
    <g stroke-linecap="round" stroke-linejoin="round" fill-rule="evenodd">
        <path d="M3.5 23.5h17V.5h-17z"/>
        <path d="M3.5.5h-2c-.55 0-1 .45-1 1v21c0 .55.45 1 1 1h2M13 12v1.5l2.538.726c.529.151.962.724.962 1.274v3h-10v-3c0-.55.433-1.123.961-1.274L10 13.5V12"/>
        <path d="M14.5 9.27c0 1.809-1.344 3.273-3 3.273-1.657 0-3-1.464-3-3.272 0-1.807 1.343-3.272 3-3.272 1.656 0 3 1.466 3 3.272z"/>
        <path d="M14.469 8.676c-.5.5-1.93.498-2.47-.505-1 1-2.624 1-3.433.429M20.5 2h1c1.1 0 2 .9 2 2v3h-3"/>
        <path d="M20.5 7h3v5h-3"/>
        <path d="M20.5 12h3v5h-3"/>
        <path d="M20.5 17h3v3c0 1.1-.9 2-2 2h-1"/>
    </g>
</symbol><symbol id="icon-contractdata" viewBox="0 0 25 25">
    <style>
        .st0{fill:none;stroke:#002651;stroke-linecap:round;stroke-linejoin:round;stroke-miterlimit:10}
    </style>
    <g>
        <path class="st0" d="M3.5.5h21v21h-21z"/>
        <path class="st0" d="M7.5 4.5h13"/>
        <path class="st0" d="M7.5 6.5h13"/>
        <path class="st0" d="M7.5 8.5h13"/>
        <path class="st0" d="M7.5 10.5h13"/>
        <path class="st0" d="M7.5 12.5h13"/>
        <path class="st0" d="M7.5 14.5h13"/>
        <path class="st0" d="M7.5 16.5h6"/>
        <path class="st0" d="M3.5 4.5h-3v20h20v-3"/>
    </g>
</symbol><symbol id="icon-cookies" viewBox="0 0 25 25">
    <style>
        .st0{fill:none;stroke:#002651;stroke-miterlimit:10}
    </style>
    <g>
        <path class="st0" d="M20.9 7.2c-1.8 0-3.4-1.2-3.9-2.8-.8.6-1.8.8-2.8.7-2.1-.2-3.7-2.1-3.7-4.3V.6C4.3 1.7-.3 7.6.7 14.3c.8 5 4.7 9 9.6 9.9 7.6 1.4 14.3-4.4 14.3-11.8 0-2.1-.6-4.1-1.5-5.8-.6.4-1.4.6-2.2.6z"/>
        <circle class="st0" cx="8.3" cy="9.3" r="2.1"/>
        <circle class="st0" cx="15.6" cy="14.5" r="1"/>
        <circle class="st0" cx="9.4" cy="17.6" r="2.1"/>
        <circle class="st0" cx="16.7" cy="10.3" r=".5"/>
        <circle class="st0" cx="4.2" cy="13.4" r=".5"/>
        <circle class="st0" cx="15.6" cy="19.7" r=".5"/>
    </g>
</symbol><symbol id="icon-correct" viewBox="0 0 24 24">
    <path d="M7.5 20.5c-1.101 0-2.637-.636-3.415-1.414l-2.171-2.171a2.006 2.006 0 0 1 0-2.829L14.085 1.915a2.006 2.006 0 0 1 2.829 0l5.171 5.171a2.006 2.006 0 0 1 0 2.829l-9.171 9.171C12.136 19.864 10.6 20.5 9.5 20.5h-2zm2-14l8 8m-17 8h23" stroke-linecap="round" stroke-linejoin="round" fill-rule="evenodd"/>
</symbol><symbol id="icon-data-we" viewBox="0 0 19.8 20">
    <style>
        .st0{fill:#4d77ba}
    </style>
    <g>
        <path class="st0" d="M5 9h9.8c.9 0 1.6-.7 1.6-1.7V1.7c0-.9-.7-1.7-1.6-1.7H5c-.9 0-1.6.7-1.6 1.7v5.7C3.4 8.3 4.1 9 5 9zm8.3-5.5c.6 0 1.1.5 1.1 1.2s-.5 1.2-1.1 1.2c-.6 0-1.1-.5-1.1-1.2-.1-.6.5-1.2 1.1-1.2zm-6.7 0c.6 0 1.1.5 1.1 1.2s-.5 1.2-1.1 1.2-1.1-.5-1.1-1.2c0-.6.5-1.2 1.1-1.2z"/>
        <path class="st0" d="M11.1 9H8.7c-.2.8-.4 1-.4 1.2 0 .2.2.4.4-.2h2.5c.2.6.4.4.4.2s-.2-.4-.5-1.2z"/>
        <path class="st0" d="M11.1 11H8.7c-.2.5-.4.7-.4.9 0 .2.2.4.4.1h2.5c.2.4.4.2.4-.1 0-.2-.2-.4-.5-.9z"/>
        <path class="st0" d="M19.8 9.5c0-.6-.2-1.1-.5-1.6-.1-.2-.4-.2-.6-.1-.2.1-.2.4-.1.6.3.4.4.7.4 1.1 0 1-.7 1.8-1.7 1.8-.5 0-1-.3-1.3-.7-.1-.2-.4-.2-.6-.1-.2.1-.2.4-.1.6.5.7 1.2 1 2 1 .2 0 .3 0 .5-.1l.3 1.4-1.9 1.6.3-1.6c0-.1 0-.3-.1-.4-.1-.1-.2-.2-.3-.2H3.7c-.1 0-.2.1-.3.2-.1.1-.1.2-.1.4l.3 1.6-1.9-1.6.3-1.3c.2 0 .3.1.5.1.8 0 1.5-.4 2-1 .1-.2.1-.5-.1-.6-.2-.1-.4-.1-.6.1-.3.3-.8.5-1.3.5-.9 0-1.7-.8-1.7-1.8 0-.4.1-.7.3-1.1.2 0 .2-.3 0-.5-.2-.1-.5-.1-.6.1-.3.5-.5 1-.5 1.6 0 1 .5 1.8 1.2 2.2l-.4 1.8c0 .2 0 .3.2.4l2.9 2.4.7 3.3c0 .3.2.4.4.4h9.9c.2 0 .4-.1.4-.3l.7-3.3 2.9-2.4c.1-.1.2-.3.2-.4l-.4-1.8c.6-.5 1.1-1.3 1.1-2.3zM13.4 20h-7v-4h7v4z"/>
    </g>
</symbol><symbol id="icon-data-you" viewBox="0 0 10 20">
    <style>
        .st0{fill:#71af8c}
    </style>
    <g>
        <circle class="st0" cx="5" cy="3" r="3"/>
        <path class="st0" d="M9.6 7H.4c-.2 0-.4.2-.4.4 0 3.9 1.5 6.5 3 7.2V20h4v-5.4c1.3-.7 3-3.4 3-7.2 0-.2-.2-.4-.4-.4z"/>
    </g>
</symbol><symbol id="icon-datacollection" viewBox="0 0 25 25">
    <style>
        .st0{fill:none;stroke:#002651;stroke-linecap:round;stroke-linejoin:round;stroke-miterlimit:10}
    </style>
    <g>
        <path class="st0" d="M.5 16.5h4v7h-4z"/>
        <path class="st0" d="M4.5 22.5H22c0-1.5-3.5-3-7.5-3h-6"/>
        <path class="st0" d="M4.5 17.5h3.8c2.5 0 3.7 1.5 4.2 2"/>
        <path class="st0" d="M7.5 14.5H21c1.9 0 3.5-1.6 3.5-3.5V4.5h-16v8.3c0 .8-.5 1.7-1.4 1.7-.9 0-1.7-.8-1.6-1.7V1.5h6v1h11v2"/>
    </g>
</symbol><symbol id="icon-datatypes" viewBox="0 0 25 25">
    <style>
        .st0{fill:none;stroke:#002651;stroke-linecap:round;stroke-linejoin:round;stroke-miterlimit:10}
    </style>
    <path class="st0" d="M19.5 14.5v-8h-8.1l-1-2H5.5v10"/>
    <path class="st0" d="M18.5 4.5h-6l-.9-2H7.5"/>
    <path class="st0" d="M17.5 2.5h-3.7l-1.1-2H7.5"/>
    <g>
        <path class="st0" d="M24.5 24.5H.5v-8h8v1.3c-.2 1.2 1 1.7 1.9 1.7h4.7c1.4 0 2.1-.3 2.4-1.7v-1.3h7v8z"/>
        <path class="st0" d="M.5 16.3l2.8-4.8h2.2"/>
        <path class="st0" d="M19.5 11.5h2.2l2.8 4.8"/>
    </g>
    <path class="st0" d="M13.4 11.6c.5-.3.8-.9.8-1.4 0-1-.8-1.7-1.7-1.7-1 0-1.7.8-1.7 1.7 0 .6.3 1 .8 1.4-1.1.4-2 1.1-2 2.9h6c-.2-1.7-1.1-2.4-2.2-2.9z"/>
</symbol><symbol id="icon-datause" viewBox="0 0 25 25">
    <style>
        .st0{fill:#002651}.st1{fill:none;stroke:#002651;stroke-linejoin:round;stroke-miterlimit:10}
    </style>
    <g>
        <path class="st0" d="M8.5 20C6.6 20 5 18.4 5 16.5S6.6 13 8.5 13s3.5 1.6 3.5 3.5S10.4 20 8.5 20zm0-6C7.1 14 6 15.1 6 16.5S7.1 19 8.5 19s2.5-1.1 2.5-2.5S9.9 14 8.5 14z"/>
        <path class="st0" d="M10.5 25h-4c-.3 0-.5-.2-.5-.5V23c-.7-.3-1.4-.6-1.9-1.1l-1.3.8c-.1.1-.3.1-.4.1-.1 0-.2-.1-.3-.2l-2-3.4c-.1-.2-.1-.5.2-.7l1.3-.8c-.1-.8-.1-1.6 0-2.3l-1.3-.8c-.2-.1-.3-.4-.2-.7l2-3.4c.1-.1.2-.2.3-.2.1 0 .3 0 .4.1l1.3.8c.5-.6 1.2-1 1.9-1.2V8.5c0-.3.2-.5.5-.5h4c.3 0 .5.2.5.5v1.6c.6.3 1.2.6 1.8 1.1l1.3-.8c.1-.1.3-.1.4-.1.1 0 .2.1.3.2l2 3.4c.1.2.1.5-.2.7l-1.3.8c.1.8.1 1.6.1 2.2l1.3.8c.2.1.3.4.2.7l-2 3.4c-.1.1-.2.2-.3.2-.1 0-.3 0-.4-.1l-1.3-.8c-.6.4-1.2.8-1.9 1.1v1.5c0 .4-.2.6-.5.6zM7 24h3v-1.3c0-.2.1-.4.3-.5.8-.3 1.6-.7 2.2-1.2.2-.1.4-.2.6-.1l1.2.7 1.5-2.6-1.2-.7c-.2-.1-.3-.3-.2-.5.1-.6.1-1.6-.1-2.5 0-.2 0-.4.2-.5l1.2-.7-1.5-2.6-1.2.7c-.2.1-.4.1-.6-.1-.7-.6-1.4-1-2.1-1.2-.2-.1-.3-.3-.3-.5V9H7v1.3c0 .2-.1.4-.3.5-.8.3-1.6.7-2.2 1.2-.2.1-.4.2-.6.1l-1.2-.7L1.2 14l1.2.7c.2.1.3.3.2.5-.2.8-.2 1.7 0 2.6 0 .2-.1.4-.2.5l-1.2.7 1.5 2.6 1.2-.7c.1-.1.4-.1.5.1.6.5 1.4 1 2.2 1.2.3.1.4.3.4.5V24z"/>
    </g>
    <g>
        <circle class="st1" cx="19.5" cy="6" r="1.5"/>
        <path class="st1" d="M22.9 5.2l1-.6-1-1.7-1 .6c-.4-.4-.9-.6-1.4-.8V1.5h-2v1.2c-.5.2-1 .4-1.4.8l-1-.6-1 1.7 1 .6c-.1.5-.1 1.1 0 1.6l-1 .6 1 1.7 1-.6c.4.4.9.7 1.4.8v1.2h2V9.3c.5-.2 1-.4 1.4-.8l1 .6 1-1.7-1-.6c.1-.5.1-1.1 0-1.6z"/>
    </g>
</symbol><symbol id="icon-draft" viewBox="0 0 11 7">
    <title>
        Combined Shape
    </title>
    <path d="M.5 0h9a.5.5 0 0 1 0 1h-9a.5.5 0 0 1 0-1zm0 3h10a.5.5 0 0 1 0 1H.5a.5.5 0 0 1 0-1zm0 3h6a.5.5 0 0 1 0 1h-6a.5.5 0 0 1 0-1z" fill-rule="evenodd"/>
</symbol><symbol id="icon-duration" viewBox="0 0 25 25">
    <style>
        .st0{fill:none;stroke:#002651;stroke-linecap:round;stroke-linejoin:round;stroke-miterlimit:10}
    </style>
    <g>
        <path class="st0" d="M18.5 5.7c0 3.7-2.7 6.7-6 6.7s-6-3-6-6.7V.5h12v5.2z"/>
        <path class="st0" d="M18.5 19.3c0-3.7-2.7-6.7-6-6.7s-6 3-6 6.7v5.2h12v-5.2z"/>
        <path class="st0" d="M4.5.5h16"/>
        <path class="st0" d="M4.5 24.5h16"/>
        <path class="st0" d="M6.5 20.5h3.2l2.8-3.1 2.8 3.1h3.2"/>
        <path class="st0" d="M7.5 9.5h10"/>
    </g>
</symbol><symbol id="icon-facebook" viewBox="0 0 10 19">
    <title>
        facebook
    </title>
    <path d="M9.766.157v2.946H8.014c-.64 0-1.071.134-1.295.402-.223.268-.335.67-.335 1.205v2.11h3.27l-.435 3.303H6.384v8.471H2.97v-8.47H.123V6.82H2.97V4.387c0-1.384.387-2.457 1.161-3.22C4.904.404 5.934.023 7.222.023c1.093 0 1.941.045 2.544.134z" fill-rule="evenodd"/>
</symbol><symbol id="icon-feedback" viewBox="0 0 24 24">
    <g fill-rule="evenodd" stroke-linejoin="round">
        <path d="M23.5 10.883c0 5.18-5.148 9.382-11.5 9.382-1.418 0-2.775-.21-4.029-.592l-6.609 3.076 2.588-5.166C1.82 15.88.5 13.507.5 10.883.5 5.7 5.648 1.5 12 1.5s11.5 4.2 11.5 9.383z"/>
        <path d="M12.5 16.5s5.5-4 5.5-6.964c0-3.418-4.5-4.5-5.5-.342-1-4.158-5.5-3.076-5.5.342C7 12.5 12.5 16.5 12.5 16.5z"/>
    </g>
</symbol><symbol id="icon-forget" viewBox="0 0 25 25">
    <style>
        .st0{fill:none;stroke:#002651;stroke-linecap:round;stroke-linejoin:round;stroke-miterlimit:10}
    </style>
    <g>
        <path class="st0" d="M19.5 10.5h-14V.5H13l6.5 6.7z"/>
        <path class="st0" d="M12.5.5v7h7"/>
        <path class="st0" d="M12.5 13.5v11"/>
        <path class="st0" d="M9.5 13.5v11"/>
        <path class="st0" d="M15.5 13.5v11"/>
        <path class="st0" d="M20.1 22.4c-.9 0-1.6-.7-1.6-1.6v-7.3"/>
        <path class="st0" d="M4.9 22.4c.9 0 1.6-.7 1.6-1.6v-7.4"/>
        <path class="st0" d="M5.5 13.5h14"/>
        <path class="st0" d="M4.5 15.5H2.1c-.9 0-1.6-.7-1.6-1.6V12c0-.9.7-1.6 1.6-1.6H23c.9 0 1.6.7 1.6 1.6v1.9c0 .9-.7 1.6-1.6 1.6h-2.4"/>
        <path class="st0" d="M22 12.5c-.3 0-.5.2-.5.5s.2.5.5.5.5-.2.5-.5-.2-.5-.5-.5z"/>
    </g>
</symbol><symbol id="icon-location" viewBox="0 0 25 25">
    <style>
        .st0{fill:none;stroke:#002651;stroke-linecap:round;stroke-linejoin:round;stroke-miterlimit:10}
    </style>
    <g>
        <circle class="st0" cx="12.5" cy="12.5" r="12"/>
        <path class="st0" d="M21.4 4.8s-.9 2.7-2.9 3.7c-2-.5-4 1-3.5 1s1 2 1 2c.5.5 1.5 0 1.5 0 1.2 1.2-2 3.5-2 4s1.2.8.5 1.5-1.5 1-1.5 1c0 2.5-2.5 2.5-3 2.5S10 18.5 10 18s.5-1 .5-1.5-1-1.5-1-1.5c0-2-1.5-1.5-3-1.5s-1.5-2-1.5-2 0-3.5 2.5-4S10 8 10 8c1 1 3 0 4 0 0 0 .5-3.5-.5-3s-1.9.1-2-1c-.1-1.6 4.4-3 4.4-3"/>
    </g>
</symbol><symbol id="icon-lock" viewBox="0 0 19 25">
    <title>
        locked copy 8
    </title>
    <path d="M17.564 10.232c-.78 0-1.04-.38-1.04-.85V7.876c0-4.35-3.22-7.877-7.19-7.877-3.971 0-7.19 3.526-7.19 7.877v1.504c0 .47-.16.85-1.005.85-.63 0-1.139.512-1.139 1.141v11.916c0 .63.51 1.14 1.14 1.14h16.424c.63 0 1.14-.51 1.14-1.14V11.372c0-.63-.51-1.14-1.14-1.14zm-7.283 7.023a.67.67 0 0 0-.283.555v1.722a.642.642 0 0 1-.706.638c-.333-.031-.578-.33-.578-.665v-1.688a.67.67 0 0 0-.285-.556 1.642 1.642 0 0 1-.722-1.379 1.657 1.657 0 0 1 1.566-1.625 1.644 1.644 0 0 1 1.008 2.998zm3.682-7.874c0 .47-.382.85-.852.85H5.556a.851.851 0 0 1-.852-.85V7.536c0-2.73 2.073-4.942 4.63-4.942 2.556 0 4.629 2.212 4.629 4.942V9.38z" fill-rule="evenodd"/>
</symbol><symbol id="icon-logo" viewBox="0 0 62 24">
    <title>
        logo_footer
    </title>
    <g fill-rule="nonzero">
        <path d="M37.707 3.37l-.315.345V.877H33.13v16.65h4.263v-7.13c0-3.082 2.482-5.609 5.557-5.678V.496c-1.852.07-3.67 1.073-5.242 2.873z"/>
        <path d="M5.766 14.1a5.601 5.601 0 0 1-1.677 4.015 5.66 5.66 0 0 1-3.88 1.662V24a9.815 9.815 0 0 0 6.885-2.908c1.887-1.869 2.936-4.361 2.936-6.992V.912H5.766V14.1z"/>
        <path d="M25.406 9.877c0 2.077-1.712 3.773-3.81 3.773-2.096 0-3.808-1.696-3.808-3.773v-9h-4.264v9c0 4.396 3.635 7.996 8.073 7.996 4.438 0 8.072-3.6 8.072-7.996v-9h-4.263v9z"/>
        <path d="M52.245.496c-4.858 0-8.807 3.912-8.807 8.723 0 4.812 3.95 8.723 8.807 8.723s8.806-3.911 8.806-8.723c0-4.811-3.949-8.723-8.806-8.723zm0 13.12c-2.447 0-4.439-1.974-4.439-4.397s1.992-4.396 4.439-4.396c2.446 0 4.438 1.973 4.438 4.396s-1.992 4.396-4.438 4.396z"/>
    </g>
</symbol><symbol id="icon-logo_footer" viewBox="0 0 65 27">
    <title>
        Juro_logotype
    </title>
    <g fill-rule="nonzero">
        <path d="M37.707 6.37l-.315.345V3.877H33.13v16.65h4.263v-7.13c0-3.082 2.482-5.609 5.557-5.678V3.496c-1.852.07-3.67 1.073-5.242 2.873z"/>
        <path d="M5.766 17.1a5.601 5.601 0 0 1-1.677 4.015 5.66 5.66 0 0 1-3.88 1.662V27a9.815 9.815 0 0 0 6.885-2.908c1.887-1.869 2.936-4.361 2.936-6.992V3.912H5.766V17.1z"/>
        <path d="M25.406 12.877c0 2.077-1.712 3.773-3.81 3.773-2.096 0-3.808-1.696-3.808-3.773v-9h-4.264v9c0 4.396 3.635 7.996 8.073 7.996 4.438 0 8.072-3.6 8.072-7.996v-9h-4.263v9z"/>
        <path d="M52.245 3.496c-4.858 0-8.807 3.912-8.807 8.723 0 4.812 3.95 8.723 8.807 8.723s8.806-3.911 8.806-8.723c0-4.811-3.949-8.723-8.806-8.723zm0 13.12c-2.447 0-4.439-1.974-4.439-4.397s1.992-4.396 4.439-4.396c2.446 0 4.438 1.973 4.438 4.396s-1.992 4.396-4.438 4.396z"/>
        <path d="M63.043 0c-.978 0-1.782.762-1.782 1.765 0 .97.804 1.766 1.782 1.766.979 0 1.782-.796 1.782-1.766C64.79.762 64.022 0 63.043 0zm0 3.22a1.47 1.47 0 0 1-1.468-1.455c0-.83.664-1.453 1.468-1.453a1.47 1.47 0 0 1 1.468 1.453c0 .762-.664 1.454-1.468 1.454z"/>
        <path d="M63.847 1.35c0-.38-.35-.623-.7-.623h-.838v2.008h.315v-.797h.314l.524.797h.385l-.524-.797c.14 0 .524-.138.524-.588zm-1.188.346v-.692h.524c.175 0 .384.138.384.346 0 .208-.175.346-.384.346h-.524z"/>
    </g>
</symbol><symbol id="icon-marketing" viewBox="0 0 24 24">
    <g fill-rule="evenodd" stroke-linecap="round" stroke-linejoin="round">
        <path d="M7.5 6.5v8.527a7.24 7.24 0 0 0 4 6.473m12-10.5a1.5 1.5 0 0 1-1.5 1.5h-.5v-4h.5a1.5 1.5 0 0 1 1.5 1.5v1z"/>
        <path d="M4.5 6.5h-1a3 3 0 0 0-3 3v2c0 1.656 1.344 3 3 3h1c8.927 0 12.59 1.995 17 4v-16c-4.4 2-8.068 4-17 4z"/>
    </g>
</symbol><symbol id="icon-no_mktg" viewBox="0 0 24 24">
    <g fill-rule="evenodd" stroke-linecap="round" stroke-linejoin="round">
        <path d="M7.5 6.5v8.527a7.24 7.24 0 0 0 4 6.473m12-10.5a1.5 1.5 0 0 1-1.5 1.5h-.5v-4h.5a1.5 1.5 0 0 1 1.5 1.5v1z"/>
        <path d="M4.5 6.5h-1a3 3 0 0 0-3 3v2c0 1.656 1.344 3 3 3h1c8.927 0 12.59 1.995 17 4v-16c-4.4 2-8.068 4-17 4zM.673 21.401L23.565.51"/>
    </g>
</symbol><symbol id="icon-nocookie" viewBox="0 0 24 24">
    <g fill-rule="evenodd" stroke-linecap="round" stroke-linejoin="round">
        <path d="M20 7.006c-1.753 0-3.226-1.135-3.767-2.703-.636.437-1.4.703-2.233.703a4 4 0 0 1-4-4c0-.11.023-.213.032-.32C4.62 1.62.5 6.326.5 12.006c0 6.352 5.148 11.5 11.5 11.5s11.5-5.148 11.5-11.5c0-2.028-.537-3.925-1.461-5.577A3.959 3.959 0 0 1 20 7.006z"/>
        <path d="M10 9.006a2 2 0 1 1-4.001-.002A2 2 0 0 1 10 9.006zm6 5a1 1 0 1 1-2 0 1 1 0 0 1 2 0zm-6 3a2 2 0 1 1-4.001-.002 2 2 0 0 1 4.001.002zm8.5-7a.5.5 0 1 1-1 0 .5.5 0 0 1 1 0zm-14 3a.5.5 0 1 1-1 0 .5.5 0 0 1 1 0zm11 6a.5.5 0 1 1-1 0 .5.5 0 0 1 1 0z"/>
        <path d="M1 24L24 1"/>
    </g>
</symbol><symbol id="icon-nodata" viewBox="0 0 24 24">
    <g stroke-linecap="round" stroke-linejoin="round" fill-rule="evenodd">
        <path d="M23.5 12c0 6.352-5.148 11.5-11.5 11.5C5.649 23.5.5 18.352.5 12S5.649.5 12 .5C18.352.5 23.5 5.648 23.5 12z"/>
        <path d="M12 4.333a7.667 7.667 0 0 0-6.341 11.974L16.309 5.66A7.633 7.633 0 0 0 12 4.333zM7.691 18.341A7.667 7.667 0 0 0 18.34 7.692L7.691 18.34z"/>
    </g>
</symbol><symbol id="icon-noprofile" viewBox="0 0 24 24">
    <g fill-rule="evenodd" stroke-linecap="round" stroke-linejoin="round">
        <path d="M1 24L24 1"/>
        <path d="M12 19.5H2.5a2 2 0 0 1-2-2v-14a2 2 0 0 1 2-2h19a2 2 0 0 1 2 2V11M.5 6.5h23"/>
        <path d="M4.5 4a.5.5 0 1 1-1 0 .5.5 0 0 1 1 0zm3 0a.5.5 0 1 1-1 0 .5.5 0 0 1 1 0zm3 0a.5.5 0 1 1-1 0 .5.5 0 0 1 1 0zm8 5.5h-10m-4 0h1m7 3h-4m-4 0h1m7 3h-4m-4 0h1m18 7a4.5 4.5 0 0 0-9 0h9zm-1.75-7.25a2.75 2.75 0 1 0-5.5 0 2.75 2.75 0 0 0 5.5 0z"/>
    </g>
</symbol><symbol id="icon-oculus" viewBox="0 0 93 21">
    <title>
        Page 1
    </title>
    <g fill-rule="evenodd">
        <path d="M16.512 6.712c-1.448 0-2.897-.004-4.345.001-.794.003-1.59-.013-2.382.038-1.705.11-2.986 1.411-3.107 3.111-.108 1.529.99 2.973 2.582 3.322.51.112 1.05.125 1.577.126 3.768.01 7.538.007 11.306.004.374 0 .749-.007 1.12-.04 1.604-.141 2.907-1.42 3.016-2.946.12-1.694-.892-3.11-2.537-3.481-.48-.109-.988-.126-1.483-.13-1.916-.014-3.831-.005-5.747-.005zM16.505.01c2.01 0 4.02-.016 6.03.005 1.748.018 3.436.336 5.01 1.142 3.546 1.815 5.905 5.656 5.343 10.072-.558 4.376-3.727 7.73-7.95 8.523-.914.171-1.856.25-2.785.258-3.771.028-7.542.014-11.313.01-1.744-.001-3.444-.238-5.05-.977A9.975 9.975 0 0 1 .007 9.659C.166 4.885 3.799.83 8.522.183c.8-.11 1.613-.159 2.42-.17 1.854-.024 3.709-.007 5.563-.007V.01z"/>
        <path d="M42.872 10.196c0 1.423 1.007 2.456 2.386 2.447 1.358-.01 2.36-1.037 2.367-2.426.007-1.418-.993-2.462-2.369-2.473-1.374-.01-2.384 1.029-2.384 2.452m6.761.008c-.005 2.553-1.889 4.453-4.409 4.448-2.485-.006-4.36-1.911-4.375-4.443-.014-2.553 1.906-4.489 4.44-4.476 2.48.013 4.35 1.938 4.344 4.47"/>
        <path d="M66.57 13.515c-1.144.877-2.357 1.14-3.677.813-1.545-.381-2.524-1.602-2.61-3.36-.08-1.618-.054-3.241-.084-4.861-.006-.29.11-.381.388-.37.436.017.873.018 1.309 0 .296-.014.37.112.367.386-.008 1.169-.016 2.338.01 3.507.011.51.057 1.03.17 1.527.2.873.87 1.381 1.75 1.41.975.031 1.73-.437 2.006-1.284.095-.291.144-.61.149-.916.02-1.371.017-2.743.025-4.115.002-.508.004-.509.52-.51.375-.002.75.018 1.122-.006.335-.023.42.11.419.429-.013 1.886-.006 3.772-.006 5.658 0 .67.002 1.34-.001 2.01-.003.427-.006.428-.447.432-.311.003-.625-.018-.935.006-.321.024-.465-.09-.438-.417.008-.088-.018-.179-.037-.34"/>
        <path d="M81.603 13.506c-.632.503-1.278.8-2 .9-1.238.17-2.358-.088-3.277-.982-.725-.706-.997-1.619-1.028-2.588-.05-1.588-.032-3.178-.05-4.768-.002-.237.08-.338.324-.332.452.012.905.018 1.356-.002.305-.013.362.127.362.393-.003 1.17 0 2.338.022 3.507.009.45.033.907.12 1.347.213 1.077.943 1.627 2.033 1.582 1.024-.041 1.777-.734 1.883-1.788.06-.603.06-1.213.067-1.82.01-.904.003-1.808.005-2.712.002-.501.004-.502.522-.504.39-.001.78.012 1.169-.004.27-.01.352.104.348.36-.011.623-.004 1.246-.004 1.87 0 1.87.003 3.74 0 5.61-.002.792.075.678-.71.688-.219.003-.439-.019-.655.005-.348.038-.494-.099-.46-.446.009-.075-.012-.153-.027-.316"/>
        <path d="M85.281 12.807l1.084-1.449c.658.48 1.329.86 2.103.93.487.045.994.01 1.475-.078.357-.065.654-.312.688-.731.036-.446-.244-.71-.61-.843-.48-.174-.987-.273-1.477-.422-.49-.148-1.001-.262-1.456-.486-1.496-.738-1.782-2.5-.631-3.715.491-.518 1.11-.799 1.8-.916 1.35-.23 2.6.037 3.743.792.026.017.051.037.07.061.02.023.03.053.063.116l-.915 1.26c-.665-.188-1.25-.41-1.855-.503-.364-.056-.769.05-1.136.152a.655.655 0 0 0-.495.618c-.014.328.193.533.463.637.39.15.8.245 1.2.372.562.178 1.145.312 1.676.558.93.43 1.52 1.164 1.504 2.227-.016 1.091-.567 1.902-1.544 2.376-1.26.612-2.563.56-3.865.128a5.308 5.308 0 0 1-1.885-1.084"/>
        <path d="M58.934 6.783c-.343.438-.678.847-.992 1.273-.148.2-.272.23-.5.108-.62-.334-1.28-.46-1.985-.31-1.14.244-1.82 1.13-1.807 2.385.013 1.221.743 2.155 1.844 2.375.905.181 1.691-.076 2.36-.602l1.43 1.33c-1.007 1.409-3.978 2.047-5.99.522-1.97-1.494-2.279-4.734-.63-6.657 1.511-1.763 4.65-1.994 6.27-.424"/>
        <path d="M73.008 7.995v6.078c-.001.488-.004.49-.481.492-.405.002-.81-.01-1.215.004-.256.009-.383-.076-.361-.345.01-.123 0-.249 0-.373V2.163c0-.125.01-.25 0-.374-.02-.258.081-.365.35-.355.42.016.84.002 1.262.005.438.003.443.005.444.432.003 1.122 0 2.244 0 3.366v2.758z"/>
    </g>
</symbol><symbol id="icon-payments" viewBox="0 0 24 24">
    <g stroke-linecap="round" stroke-linejoin="round" fill-rule="evenodd">
        <path d="M21.5 16.5V19c0 1.934-1.566 3.5-3.5 3.5H2.5a2 2 0 0 1-2-2v-13a2 2 0 0 1 2-2H18c1.934 0 3.5 1.566 3.5 3.5v2.5"/>
        <path d="M23.5 14.625c0 1.037-.774 1.875-1.731 1.875h-4.038c-.956 0-1.731-.838-1.731-1.875v-1.25c0-1.036.775-1.875 1.731-1.875h4.038c.957 0 1.731.839 1.731 1.875v1.25z"/>
        <path d="M19 14a.5.5 0 1 1-1 0 .5.5 0 0 1 1 0z"/>
        <path d="M18.38 5.521L17.5 2l-13 3.5"/>
        <path d="M2.5 7.5h1m2 0h1m2 0h1m2 0h1m2 0h1m2 0h1m-16 13h1m2 0h1m2 0h1m2 0h1m2 0h1m2 0h1"/>
    </g>
</symbol><symbol id="icon-pen" viewBox="0 0 10 10">
    <title>
        Combined Shape Copy
    </title>
    <path d="M4.036 5.66L.671 9.024C.64 8.75.66 8.433.779 8.174l2.109-4.638 2.137-.72c.512-.172 1.259.002 1.651.395l.07.07c.395.395.57 1.132.396 1.652L6.423 7.07 1.785 9.18a1.69 1.69 0 0 1-.888.141l3.399-3.4a.715.715 0 1 0-.26-.26zM8.95 3.535a.722.722 0 0 1-1.016-.006L6.429 2.026a.717.717 0 0 1-.006-1.016.722.722 0 0 1 1.017.006L8.943 2.52a.717.717 0 0 1 .006 1.017z" fill-rule="evenodd"/>
</symbol><symbol id="icon-pinterest" viewBox="0 0 77 20">
    <title>
        Page 1
    </title>
    <g fill-rule="evenodd">
        <path d="M55.18 11.632c.908.347 1.63.417 2.354.21.287-.082.572-.261.793-.467.479-.447.577-1.148.284-1.638-.262-.44-.792-.659-1.425-.457-.387.124-.81.35-1.052.658-.374.474-.607 1.058-.954 1.694zm-17.357.168c.626.056 1.157.148 1.685.137.55-.01 1.067-.185 1.437-.646.36-.447.443-1.17.172-1.603-.308-.493-.8-.556-1.281-.424a2.97 2.97 0 0 0-1.11.565c-.539.456-.748 1.113-.903 1.971zm39.005-3.894c-.023.018-.057.03-.067.053-.189.426-.266 1.01-.593 1.236-.313.218-.883.066-1.34.08-.197.007-.394.023-.69.041-.394 1.627-.814 3.25-1.156 4.891-.061.296.111.795.344.956.244.168.749.157 1.035.015.325-.162.595-.523.782-.857.422-.758.395-.773 1.3-.557-.116 2.164-2.53 3.935-4.57 3.354-.88-.251-1.44-.956-1.375-1.93.051-.764.234-1.522.403-2.272.214-.946.478-1.881.712-2.823.06-.241.092-.49.145-.78l-1.514-.083c.021-.237.023-.402.053-.562.2-1.095.203-1.094 1.291-1.11.198-.004.396-.022.662-.038.4-1.186.799-2.374.796-3.645-.003-1.478-1.008-2.49-2.482-2.497-2.77-.016-3.603 2.251-3.308 4.18.134.878.56 1.61 1.2 2.225.287.277.586.553.821.872.391.532.341 1.11-.07 1.47-.328.289-1.014.27-1.433-.056-.133-.104-.275-.229-.344-.376-.186-.396-.452-.672-.906-.653-.532.022-1.099-.015-1.583.16-.604.22-.663.974-.15 1.407.276.233.632.384.971.528.63.267 1.287.474 1.91.755.922.416 1.559 1.085 1.568 2.158.01 1.083-.478 1.918-1.392 2.506-1.591 1.024-4.993.894-6.382-.729-.07-.082-.157-.151-.264-.252l-.726.477c-1.337.884-2.81 1.24-4.403 1.124-2.01-.146-3.44-1.66-3.459-3.675-.003-.34.033-.68.052-1.043-.507-.263-.986-.348-1.553-.123-.382.152-.84.193-1.255.16-.541-.041-.955-.5-.979-.935-.03-.527.301-.891.948-1.032.135-.029.276-.031.42-.047.187-.428.204-.822-.149-1.12-.378-.32-.862-.275-1.198-.003-.479.387-1.008.825-1.255 1.361-.557 1.212-.974 2.49-1.41 3.755-.213.62-.378 1.261-.496 1.905-.094.513-.366.65-.836.627-.506-.024-1.013-.005-1.63-.005l.324-1.56c-3.187 2.626-6.706 2.172-8.193-.293-2.407 2.45-4.42 2.777-5.626.843-.196.156-.39.304-.577.458-.752.615-1.62.832-2.57.719-.9-.107-1.548-.74-1.513-1.675.036-.96.239-1.917.41-2.868.121-.672.296-1.337.475-1.997.231-.856-.402-1.607-1.498-1.279-1.058.317-1.527 1.16-1.793 2.129-.385 1.402-.7 2.824-1.077 4.229-.383 1.434-.057 1.286-1.679 1.294h-.818l-.088-.832c-.11.047-.216.068-.292.128-.69.55-1.44.913-2.35.893-1.224-.029-1.944-.682-1.936-1.909.004-.59.147-1.187.286-1.767.411-1.72.845-3.435 1.283-5.148.19-.745.232-.772.989-.774.473-.002.946.029 1.533.05-.164.662-.295 1.204-.43 1.745-.346 1.383-.698 2.765-1.038 4.15-.06.249-.13.517-.095.76.046.318.117.806.314.887.318.131.861.131 1.107-.066.497-.398.94-.92 1.252-1.476.302-.536.436-1.173.599-1.777.311-1.158.588-2.324.885-3.486.186-.73.247-.778.983-.79.45-.006.9 0 1.38 0l.064.793c.078-.022.166-.022.22-.064.646-.498 1.344-.872 2.18-.908 1.772-.075 2.824 1.118 2.468 2.85-.242 1.173-.566 2.33-.846 3.495-.052.22-.144.474-.082.67.096.302.247.701.489.81.249.114.7.026.942-.145.309-.22.604-.576.718-.933.502-1.568.936-3.159 1.42-4.826l-1.735-.109.41-1.633h1.686c.234-.88.503-1.69.65-2.522.107-.594.426-.833.958-.911.49-.072.981-.14 1.644-.233l-.86 3.654h1.865c.06.135.083.162.081.187-.128 1.48-.153 1.503-1.61 1.512-.227.002-.454 0-.765 0-.206.787-.41 1.549-.605 2.314-.21.83-.414 1.662-.614 2.495-.1.418-.054.828.309 1.089.39.281.834.197 1.207-.059.933-.641 1.371-1.587 1.523-2.676.153-1.098.537-2.099 1.193-2.99 1.201-1.629 3.35-2.4 5.25-1.894 1.043.279 1.839.838 2 1.977.165 1.181-.137 2.237-1.166 2.943-1.204.825-2.572.856-3.961.68-.25-.031-.498-.081-.749-.123-.176 1.44.604 2.384 1.969 2.449a4.667 4.667 0 0 0 4.747-3.54c.298-1.19.592-2.38.898-3.568.192-.746.232-.774.985-.782.4-.005.802.006 1.201.023.075.004.146.075.286.153l-.256 1.292c.409-.376.73-.72 1.1-1 .74-.555 1.559-.835 2.492-.543.872.273 1.354.844 1.38 1.746.017.537-.066 1.076-.108 1.656.394.323.583.064.758-.332.605-1.366 1.546-2.39 2.999-2.88.883-.297 1.778-.412 2.699-.2 1.296.297 2.114 1.056 2.228 2.07.157 1.384-.43 2.527-1.622 3.135-1.118.57-2.31.593-3.52.46-.252-.027-.5-.08-.748-.122-.24 1.267.465 2.279 1.687 2.412 1.368.15 2.609-.22 3.702-1.052.171-.13.274-.349.414-.522.177-.22.326-.48.547-.642.376-.275.804-.258 1.208-.022.414.242.447.639.376 1.053-.028.161-.117.312-.173.455.821.837 2.243 1.174 3.244.714.272-.126.583-.452.62-.721.036-.267-.186-.652-.412-.852-.265-.234-.652-.335-.994-.473-.582-.233-1.188-.412-1.751-.682-1.048-.5-1.62-1.314-1.546-2.529.071-1.186.688-1.995 1.741-2.429.541-.223 1.16-.26 1.745-.369.194-.036.395-.032.653-.05-.083-.247-.146-.459-.226-.664-1.356-3.483 1.12-6.812 4.86-6.58 2.2.136 3.974 1.473 4.205 3.553.104.935-.192 1.916-.326 2.873-.043.306-.149.603-.233.928l2.195.286v.172z"/>
        <path d="M0 6.531c.098-.38.194-.762.293-1.142.675-2.6 2.928-4.72 6.09-5.202C7.993-.058 9.571.036 11.1.675a6.58 6.58 0 0 1 2.18 1.505c1.06 1.104 1.803 2.645 1.726 4.506-.084 2.028-.55 3.897-1.91 5.465-.796.917-1.792 1.53-2.984 1.732-1.412.239-2.747.076-3.843-1.282-.532 2.559-1.188 4.906-2.83 6.82h-.172c-.02-.312-.012-.63-.062-.937-.191-1.176-.121-2.344.138-3.495.396-1.753.846-3.493 1.241-5.245.084-.374.052-.78.034-1.169-.032-.68-.156-1.361-.125-2.037.033-.74.405-1.368 1.01-1.814.522-.383 1.117-.46 1.706-.185.556.258.755.773.736 1.35a6.6 6.6 0 0 1-.18 1.35c-.226.914-.515 1.81-.747 2.722-.39 1.528 1.14 2.395 2.19 2.15 1.007-.236 1.657-.863 2.15-1.701.712-1.212.993-2.549 1.018-3.938.047-2.501-1.206-4.097-3.654-4.513-2.866-.488-5.661.974-6.386 3.979-.265 1.098-.337 2.236.377 3.215.347.475.397.892.216 1.426-.23.68-.4.773-1.036.39-.8-.48-1.28-1.213-1.539-2.09C.21 8.392.116 7.888 0 7.392v-.86z"/>
        <path d="M18.147 3.803a1.233 1.233 0 0 1 1.26 1.146c.06.932-.811 1.865-1.744 1.868-.7.001-1.178-.47-1.2-1.182-.028-.928.773-1.8 1.684-1.832"/>
    </g>
</symbol><symbol id="icon-port" viewBox="0 0 24 24">
    <g stroke-linecap="round" stroke-linejoin="round" fill-rule="evenodd">
        <path d="M11.5 8.5s-11-.5-11 11c4-7.5 11-5 11-5v4l8.5-7-8.5-7v4z"/>
        <path d="M15 18.5l8.5-7-8.5-7"/>
    </g>
</symbol><symbol id="icon-rights" viewBox="0 0 25 25">
    <style>
        .st0{fill:none;stroke:#002651;stroke-linecap:round;stroke-linejoin:round;stroke-miterlimit:10}
    </style>
    <g>
        <path class="st0" d="M10.5 7.7c0-.9.7-1.6 1.5-1.6s1.5.7 1.5 1.6v6.5l4.4 1.6c1 .3 1.2 1.6 1 2.7l-1 6h-8l-4-6.5c-.5-.8-.5-2.2.5-2.2s2.1.4 4.1 3.8V7.7z"/>
        <path class="st0" d="M8.2.5L2.8 8.1.6 5.9"/>
        <path class="st0" d="M16.8.5l7.6 7.6"/>
        <path class="st0" d="M24.4.5l-7.6 7.6"/>
    </g>
</symbol><symbol id="icon-role" viewBox="0 0 25 25">
    <style>
        .st0{stroke-linecap:round}.st0,.st1{fill:none;stroke:#002651;stroke-linejoin:round;stroke-miterlimit:10}
    </style>
    <g>
        <path class="st0" d="M12.5 17.2c1.6 0 5.2-2.1 5.2-5.2 1.6 0 1.6-3.1 0-3.1l-.5-2.6c-4.2 0-4.2-1.6-4.7-2.1-.5.5-.5 2-4.7 2l-.5 2.6c-1.6 0-1.6 3.1 0 3.1 0 3.2 3.6 5.3 5.2 5.3z"/>
        <path class="st0" d="M18.7 9.6l.5-3.9S19.7.5 12.4.5 5.7 5.7 5.7 5.7l.5 3.9"/>
        <path class="st0" d="M9.8 16.2L3.2 18c-1.6.6-2.7 2.2-2.7 3.9v2.6h24v-2.6c0-1.7-1.1-3.3-2.7-3.9l-6.6-1.8"/>
        <path class="st0" d="M9.4 9.9c0-.6.5-.5 1-.5.6 0 1-.1 1 .5"/>
        <path class="st0" d="M13.5 9.9c0-.6.5-.5 1-.5.6 0 1-.1 1 .5"/>
        <path class="st1" d="M12.5 19.8l-3.1 4.7h6.2z"/>
        <path class="st1" d="M10.5 16.8v1.3c0 .8.9 1.5 2 1.5s2-.7 2-1.5v-1.3"/>
        <path class="st1" d="M18 21.5h4"/>
    </g>
</symbol><symbol id="icon-secure" viewBox="0 0 25 25">
    <style>
        .st0,.st1{fill:none;stroke:#002651;stroke-linecap:round;stroke-linejoin:round;stroke-miterlimit:10}.st1{fill:#002651}
    </style>
    <path class="st0" d="M12.5 17.5v3"/>
    <path class="st0" d="M3.5 9.5h18v15h-18z"/>
    <path class="st0" d="M6.5 6c0-3.4 3.4-6.1 7.2-5.4 2.8.5 4.8 2.9 4.8 5.6v3.3h-12V6z"/>
    <path class="st1" d="M11.5 15.5h2v2h-2z"/>
</symbol><symbol id="icon-sensitivedata" viewBox="0 0 24 24">
    <g fill-rule="evenodd" stroke-linejoin="round">
        <path stroke-linecap="round" d="M12 16.493V8.508"/>
        <path stroke-linecap="round" d="M23.478 23.478H.522L12 .522z"/>
        <path d="M12.522 19.826a.522.522 0 1 1-1.044 0 .522.522 0 0 1 1.044 0z"/>
    </g>
</symbol><symbol id="icon-shield" viewBox="0 0 23 26">
    <title>
        shield copy 8
    </title>
    <path d="M22.995 4.03a1.657 1.657 0 0 0-.862-1.443C19.686 1.262 15.613 0 11.5 0 7.388 0 3.313 1.262.868 2.587a1.655 1.655 0 0 0-.863 1.442c-.059 4.067.2 13.902 10.66 21.01a1.497 1.497 0 0 0 1.668 0c10.463-7.108 10.72-16.943 10.662-21.01zm-10.97 18.705a.889.889 0 0 1-1.047-.004C2.712 16.523 2.12 8.2 2.104 4.936a1.11 1.11 0 0 1 .609-.988C4.703 2.9 8.087 2.109 11.5 2.109c3.414 0 6.797.792 8.787 1.839.373.196.61.567.609.987-.015 3.27-.592 11.648-8.871 17.8zm6.84-14.048c-2.553.47-8.295 1.713-13.532 4.115a.628.628 0 0 1-.853-.342 21.087 21.087 0 0 1-1.307-6.51 1.331 1.331 0 0 1 .73-1.256c1.788-.878 4.679-1.53 7.597-1.53 2.916 0 5.806.652 7.594 1.529.473.231.752.72.732 1.246a20.109 20.109 0 0 1-.164 1.898.99.99 0 0 1-.797.85zM6.599 14.715c2.91-1.386 6.958-2.963 11.44-3.677.466-.073.838.386.686.833-1.025 3.037-2.976 6.528-6.672 9.506a.894.894 0 0 1-1.107-.001c-2.096-1.69-3.626-3.54-4.748-5.377-.28-.458-.082-1.053.401-1.284z" fill-rule="evenodd"/>
</symbol><symbol id="icon-skuscanner" viewBox="0 0 98 22">
    <title>
        Page 1
    </title>
    <g fill-rule="evenodd">
        <path d="M0 14.581c.214-.59.36-1.218.656-1.764.777-1.436 1.994-2.292 3.648-2.341.78-.024 1.565.152 2.44.247.046-1.582.733-2.955 2.11-3.897 1.418-.97 2.93-.908 4.46-.107C14.247 2.723 16.6.326 20.71.056c2.052-.134 3.895.612 5.47 2.136-.853.168-1.614.295-2.364.47-2.847.666-5.346 2.004-7.533 3.937-.12.105-.276.166-.408.258-.19.133-.42.241-.553.419A64.08 64.08 0 0 0 13.417 9.9c-1.682 2.481-2.656 5.217-2.888 8.212-.035.449-.096.895-.151 1.399-.218.023-.427.065-.635.066-1.722.005-3.446-.04-5.167.014-2.051.063-4.092-1.637-4.45-3.73-.024-.14-.083-.274-.126-.41v-.87z"/>
        <path d="M28.538 7.176c-3.65-.193-6.788 1.02-9.28 3.38-2.477 2.346-3.81 5.412-3.819 8.969h-2.503c.063-.765.08-1.482.19-2.186a14.746 14.746 0 0 1 3.25-7.256 14.631 14.631 0 0 1 5.019-3.914c1.876-.9 3.84-1.406 5.915-1.474.613-.02.68.03.829.618.144.572.25 1.154.399 1.863"/>
        <path d="M32.487 13.797c-2.535-1.696-5.12-2.043-7.8-.78-2.691 1.268-3.934 3.545-4.174 6.497h-2.34c-.233-.617-.057-1.23.065-1.814.646-3.1 2.378-5.427 5.196-6.861 2.586-1.316 5.283-1.395 8.014-.41.317.113.517.296.625.616.291.86.477 1.732.414 2.752"/>
        <path d="M49.173 11.51c0 .274.027.452-.004.619-.214 1.137-.449 2.27-.659 3.409a4.93 4.93 0 0 0-.074.972c.007.424.214.613.64.652.91.085 1.704-.486 1.884-1.375.244-1.206.475-2.414.711-3.621.115-.585.192-.653.787-.656.254-.001.507.009.76.022.05.002.096.044.209.099 0 .13.025.288-.004.437-.419 2.13-.841 4.258-1.275 6.385a7.097 7.097 0 0 1-.3.986c-.609 1.682-1.804 2.475-3.588 2.373a9.79 9.79 0 0 1-1.128-.139c-.28-.049-.389-.247-.326-.524.044-.194.097-.387.157-.576.077-.241.227-.324.497-.29.412.05.832.072 1.246.051 1.039-.054 1.786-.953 1.717-2.005-.51.147-1.017.346-1.542.426-.38.058-.8.02-1.173-.082-.842-.233-1.252-.954-1.1-1.924.194-1.233.434-2.458.655-3.686.064-.356.131-.711.2-1.066.064-.327.238-.509.6-.491.353.017.708.004 1.11.004"/>
        <path d="M47.262 11.643c-.46.592-.83 1.14-1.273 1.62-.44.476-.954.884-1.432 1.318l1.516 3.888c-.77.548-1.783.284-2.072-.49-.271-.725-.537-1.453-.814-2.202-.516.176-.843.419-.885.988-.036.483-.187.957-.267 1.438-.058.346-.246.506-.59.507-1.218.005-1.27.067-1.016-1.161.578-2.798 1.1-5.608 1.646-8.412.113-.58.177-.64.737-.643 1.052-.008 1.133-.03.899 1.082-.316 1.5-.583 3.01-.87 4.517l.113.089c.649-.645 1.322-1.268 1.941-1.94.707-.766 1.133-.92 2.367-.599"/>
        <path d="M69.025 15.35l-.107-.159c-.59.138-1.195.232-1.761.434-.26.093-.494.368-.652.616-.24.376-.133.904.148 1.082.61.388 1.95-.11 2.14-.81.102-.382.156-.776.232-1.164m-.288 2.97c-.595.21-1.12.495-1.674.575-1.916.279-2.916-1.046-2.37-2.79.25-.799.817-1.35 1.583-1.61.695-.234 1.438-.335 2.164-.468.244-.044.503-.007.732-.007.341-.83.097-1.27-.727-1.268-.572 0-1.145.119-1.717.197-.193.026-.38.088-.556.13-.442-.685-.243-1.308.455-1.509 1.041-.3 2.1-.418 3.166-.174.93.213 1.366.723 1.286 1.662-.09 1.042-.314 2.072-.48 3.106-.053.322-.143.64-.154.963-.007.199.061.426.165.598.306.502.117 1.034-.445 1.174-.618.155-1.074-.042-1.428-.579"/>
        <path d="M90.829 14.517c0-.411.041-.771-.012-1.117-.056-.37-.316-.594-.706-.645-1.033-.134-1.95.662-1.982 1.762h2.7zM87.92 15.81c-.17.938.236 1.525 1.103 1.558.625.024 1.256-.083 1.884-.14.192-.016.382-.06.562-.089.317.81.053 1.392-.695 1.575-.884.215-1.773.314-2.687.139-1.243-.239-1.992-1.103-2.037-2.376-.044-1.232.08-2.42.75-3.499.944-1.52 2.54-1.934 4.166-1.604 1.039.21 1.6.963 1.643 2.143.023.607-.1 1.22-.16 1.83-.036.365-.26.47-.601.466-1.105-.01-2.21-.004-3.314-.003h-.614z"/>
        <path d="M71.171 18.65c.162-.91.293-1.69.44-2.467.244-1.298.499-2.593.747-3.89.14-.727.738-1.055 1.432-.742.144.065.216.291.349.484l.402-.225c.61-.347 1.252-.544 1.966-.529 1.277.027 2.023.859 1.84 2.129-.118.823-.28 1.64-.431 2.459-.13.711-.274 1.42-.407 2.131-.119.629-.206.71-.866.71-.281 0-.563-.034-.94-.059.065-.446.106-.814.175-1.177.188-.995.399-1.986.578-2.983.054-.3.05-.614.041-.92-.01-.364-.229-.558-.583-.597-.753-.082-1.396.195-1.943.675-.154.136-.215.41-.26.633-.252 1.259-.48 2.523-.73 3.782-.12.597-.187.644-.798.645-.299 0-.598-.034-1.012-.06"/>
        <path d="M81.126 11.549l.15.53c.168-.092.325-.173.477-.262a3.737 3.737 0 0 1 2.181-.531c.972.064 1.661.716 1.616 1.683-.039.808-.192 1.613-.328 2.414-.158.927-.362 1.846-.529 2.772-.065.361-.248.526-.614.556-1.128.093-1.234-.026-1.014-1.125.231-1.152.45-2.307.664-3.463.163-.88-.163-1.283-1.047-1.127-.528.093-1.023.411-1.513.666-.109.057-.162.27-.192.42a285.01 285.01 0 0 0-.731 3.727c-.168.889-.183.916-1.075.9-.225-.003-.449-.05-.754-.086.047-.331.075-.594.123-.852.343-1.83.686-3.662 1.04-5.49.15-.78.163-.78.957-.77.194.001.389.024.59.038"/>
        <path d="M25.375 19.539h-2.306c-.166-.512.016-.959.153-1.393.927-2.93 4.206-4.28 6.945-2.904.575.289.89.772 1.23 1.253.069.098.055.343-.022.442-.309.398-.645.778-.997 1.139-.233.238-.457.076-.672-.083-.275-.203-.54-.435-.847-.574-1.332-.603-2.89.132-3.3 1.53-.055.189-.116.374-.184.59"/>
        <path d="M57.097 11.222c.477.089.957.168 1.432.268.367.077.53.29.383.673a2.86 2.86 0 0 0-.109.364c-.09.38-.285.463-.679.37-.467-.112-.963-.137-1.446-.14a1.194 1.194 0 0 0-.65.226.648.648 0 0 0 .07 1.118c.285.152.603.242.911.347.757.258 1.484.54 1.579 1.498.1 1.016-.195 1.859-1.06 2.452-.574.394-1.236.548-1.908.536-.628-.011-1.26-.115-1.878-.238-.494-.099-.556-.257-.437-.735.035-.14.079-.278.12-.417.098-.325.283-.384.622-.306.558.13 1.133.208 1.704.247.235.016.533-.064.707-.212.197-.169.396-.465.391-.701-.004-.195-.272-.441-.483-.56-.294-.165-.643-.233-.97-.341-.787-.262-1.329-.756-1.415-1.613-.091-.912.202-1.686.987-2.213.636-.427 1.35-.603 2.129-.623"/>
        <path d="M38.585 11.221l1.43.275c.346.065.432.296.37.604-.035.176-.094.348-.15.52-.097.295-.275.35-.589.29a9.43 9.43 0 0 0-1.553-.15c-.197-.004-.428.098-.592.221-.433.325-.378.914.105 1.152.29.143.608.23.917.33.756.246 1.444.585 1.535 1.486.104 1.027-.188 1.945-1.135 2.458a4.294 4.294 0 0 1-1.744.51c-.672.038-1.36-.13-2.035-.24-.367-.058-.53-.289-.393-.672.043-.119.068-.244.107-.364.158-.48.22-.484.704-.382.544.115 1.1.192 1.653.226.236.014.54-.059.706-.21.19-.17.35-.47.353-.718.002-.18-.234-.421-.423-.535-.258-.156-.57-.225-.864-.315-.8-.243-1.418-.668-1.527-1.567-.12-1.003.202-1.828 1.083-2.374.618-.383 1.307-.516 2.042-.545"/>
        <path d="M64.873 13.09c-.217-.037-.392-.054-.559-.098-.977-.253-1.926-.287-2.66.543-.76.86-.957 1.887-.67 2.992.133.515.568.846 1.134.846.465 0 .93-.086 1.397-.134l.499-.052c.233 1.01-.022 1.486-.93 1.62a7.392 7.392 0 0 1-1.881.044c-1.136-.129-1.842-.812-2.043-1.939-.278-1.569.003-3.025 1.022-4.29 1.168-1.451 3.23-1.582 4.623-1.108.326.11.472.325.366.67-.088.289-.188.574-.298.906"/>
        <path d="M97.956 11.507c-.13.412-.214.82-.392 1.18-.073.148-.342.223-.537.28-.414.122-.842.198-1.257.316-.306.086-.462.304-.52.627-.246 1.353-.514 2.702-.765 4.053-.125.672-.198.748-.887.747-.28-.001-.56-.037-.923-.063.05-.367.075-.648.127-.923.355-1.866.723-3.73 1.067-5.598.072-.39.192-.624.647-.625.83-.002.837-.02 1.02.544 1.277-.74 1.67-.84 2.42-.538"/>
    </g>
</symbol><symbol id="icon-usage" viewBox="0 0 24 24">
    <g stroke-linecap="round" stroke-linejoin="round" fill-rule="evenodd">
        <path d="M10.5 8c0-.819.68-1.5 1.5-1.5A1.5 1.5 0 0 1 13.5 8v6l4.5 1.5c.988.318 1.233 1.487 1 2.5l-1 5.5h-8l-4-6c-.454-.693-.5-2 .5-2s2 .419 4 3.5V8z"/>
        <path d="M7 12.5H5.5a3 3 0 0 1-3-3v-6a3 3 0 0 1 3-3h13a3 3 0 0 1 3 3v6a3 3 0 0 1-3 3H17"/>
    </g>
</symbol><symbol id="icon-viewed" viewBox="0 0 11 7">
    <title>
        viewed
    </title>
    <path d="M5.5 7C2.393 7 0 3.5 0 3.5S2.393 0 5.5 0 11 3.5 11 3.5 8.607 7 5.5 7zm0-2a1.5 1.5 0 1 0 0-3 1.5 1.5 0 0 0 0 3z" fill-rule="nonzero"/>
</symbol></svg>